<svg xmlns="http://www.w3.org/2000/svg" fill="none" viewBox="0 0 40 41">
    <g clip-path="url(#a)">
        <path fill="#F5F5F5"
            d="M40 9.386H0v3.076h40V9.386ZM37.911 3.232H2.09A8.734 8.734 0 0 0 .392 6.31h39.216a8.733 8.733 0 0 0-1.697-3.077ZM40 15.54H0v3.076h40V15.54ZM40 21.694H0v3.076h40v-3.076ZM40 27.847H0v3.077h40v-3.077ZM39.608 34.001H.392a8.732 8.732 0 0 0 1.697 3.077H37.91a8.732 8.732 0 0 0 1.697-3.077Z" />
        <path fill="#FF4B55"
            d="M31.25.155H8.75A8.73 8.73 0 0 0 2.09 3.232H37.91a8.73 8.73 0 0 0-6.66-3.077ZM40 12.463H0v3.077h40v-3.077ZM40 8.905c0-.904-.137-1.776-.392-2.596H.392A8.746 8.746 0 0 0 0 8.905v.481h40v-.48ZM40 18.617H0v3.076h40v-3.076ZM40 31.405v-.48H0v.48C0 32.309.137 33.18.392 34h39.216c.255-.82.392-1.692.392-2.596ZM37.911 37.078H2.09a8.73 8.73 0 0 0 6.661 3.077h22.5a8.73 8.73 0 0 0 6.661-3.077ZM40 24.77H0v3.077h40v-3.076Z" />
        <path fill="#41479B" d="M21.538.155H8.75A8.75 8.75 0 0 0 0 8.905v12.789h21.538V.155Z" />
        <path fill="#F5F5F5"
            d="M2.324 3.52a.07.07 0 0 0 .108.079l.427-.305.427.305a.07.07 0 0 0 .109-.08l-.159-.5.422-.311a.07.07 0 0 0-.041-.128l-.525-.004-.09-.268a8.79 8.79 0 0 0-.642.621l.122.09-.158.5ZM2.926 6.23l.166.498.525.004a.07.07 0 0 1 .041.127l-.422.312.158.5a.07.07 0 0 1-.108.079l-.427-.305-.427.305a.07.07 0 0 1-.108-.079l.158-.5-.422-.312a.07.07 0 0 1 .041-.127l.525-.004.166-.498a.07.07 0 0 1 .134 0ZM2.926 10.834l.166.498.525.004a.07.07 0 0 1 .041.127l-.422.312.158.5a.07.07 0 0 1-.108.079l-.427-.305-.427.305a.07.07 0 0 1-.108-.08l.158-.5-.422-.31a.07.07 0 0 1 .041-.128l.525-.005.166-.497a.07.07 0 0 1 .134 0ZM2.926 15.064l.166.498.525.004a.07.07 0 0 1 .041.127l-.422.312.158.5a.07.07 0 0 1-.108.079l-.427-.305-.427.305a.07.07 0 0 1-.108-.079l.158-.5-.422-.312a.07.07 0 0 1 .041-.127l.525-.004.166-.498a.07.07 0 0 1 .134 0ZM2.926 18.913l.166.498.525.004a.07.07 0 0 1 .041.128l-.422.311.158.5a.07.07 0 0 1-.108.08l-.427-.306-.427.305a.07.07 0 0 1-.108-.079l.158-.5-.422-.311a.07.07 0 0 1 .041-.128l.525-.004.166-.498a.07.07 0 0 1 .134 0ZM4.947 4.045l.166.497.524.004a.07.07 0 0 1 .042.128l-.422.311.158.5a.07.07 0 0 1-.109.08l-.426-.306-.427.305a.07.07 0 0 1-.109-.078l.159-.5-.422-.312a.07.07 0 0 1 .041-.128l.525-.004.166-.497a.07.07 0 0 1 .134 0ZM4.947 8.648l.166.498.524.004a.07.07 0 0 1 .042.128l-.422.311.158.5a.07.07 0 0 1-.109.08l-.426-.306-.427.305a.07.07 0 0 1-.109-.079l.158-.5-.422-.311a.07.07 0 0 1 .042-.128l.524-.004.166-.498a.07.07 0 0 1 .135 0ZM4.947 13.023l.166.498.524.004a.07.07 0 0 1 .042.127l-.422.312.158.5a.07.07 0 0 1-.109.079l-.426-.305-.427.305a.07.07 0 0 1-.109-.079l.158-.5-.422-.312a.07.07 0 0 1 .042-.127l.524-.005.166-.497a.07.07 0 0 1 .135 0ZM4.947 16.951l.166.498.524.004a.07.07 0 0 1 .042.128l-.422.311.158.5a.07.07 0 0 1-.109.08l-.426-.306-.427.305a.07.07 0 0 1-.109-.079l.158-.5-.422-.311a.07.07 0 0 1 .042-.128l.524-.004.166-.498a.07.07 0 0 1 .135 0ZM6.967 2.078l.166.498.525.004a.07.07 0 0 1 .041.128l-.422.311.158.5a.07.07 0 0 1-.108.08L6.9 3.292l-.427.305a.07.07 0 0 1-.108-.079l.158-.5-.422-.311a.07.07 0 0 1 .041-.128l.525-.004.166-.498a.07.07 0 0 1 .134 0ZM6.967 6.23l.166.498.525.004a.07.07 0 0 1 .041.127l-.422.312.158.5a.07.07 0 0 1-.108.079L6.9 7.445l-.427.305a.07.07 0 0 1-.108-.079l.158-.5-.422-.312a.07.07 0 0 1 .041-.127l.525-.004.166-.498a.07.07 0 0 1 .134 0ZM6.967 10.834l.166.498.525.004a.07.07 0 0 1 .041.127l-.422.312.158.5a.07.07 0 0 1-.108.079l-.427-.305-.427.305a.07.07 0 0 1-.108-.08l.158-.5-.422-.31a.07.07 0 0 1 .041-.128l.525-.005.166-.497a.07.07 0 0 1 .134 0ZM6.967 15.064l.166.498.525.004a.07.07 0 0 1 .041.127l-.422.312.158.5a.07.07 0 0 1-.108.079l-.427-.305-.427.305a.07.07 0 0 1-.108-.079l.158-.5-.422-.312a.07.07 0 0 1 .041-.127l.525-.004.166-.498a.07.07 0 0 1 .134 0ZM6.967 18.913l.166.498.525.004a.07.07 0 0 1 .041.128l-.422.311.158.5a.07.07 0 0 1-.108.08l-.427-.306-.427.305a.07.07 0 0 1-.108-.079l.158-.5-.422-.311a.07.07 0 0 1 .041-.128l.525-.004.166-.498a.07.07 0 0 1 .134 0ZM8.988 4.045l.166.497.524.004a.07.07 0 0 1 .042.128l-.422.311.158.5a.07.07 0 0 1-.109.08l-.426-.306-.427.305a.07.07 0 0 1-.109-.078l.159-.5-.423-.312a.07.07 0 0 1 .042-.128l.524-.004.166-.497a.07.07 0 0 1 .135 0ZM8.988 8.648l.166.498.524.004a.07.07 0 0 1 .042.128l-.422.311.158.5a.07.07 0 0 1-.109.08l-.426-.306-.427.305a.07.07 0 0 1-.109-.079l.159-.5-.423-.311a.07.07 0 0 1 .042-.128l.524-.004.166-.498a.07.07 0 0 1 .135 0ZM8.988 13.023l.166.498.524.004a.07.07 0 0 1 .042.127l-.422.312.158.5a.07.07 0 0 1-.109.079l-.426-.305-.427.305a.07.07 0 0 1-.109-.079l.159-.5-.423-.312a.07.07 0 0 1 .042-.127l.524-.005.166-.497a.07.07 0 0 1 .135 0ZM8.988 16.951l.166.498.524.004a.07.07 0 0 1 .042.128l-.422.311.158.5a.07.07 0 0 1-.109.08l-.426-.306-.427.305a.07.07 0 0 1-.109-.079l.159-.5-.423-.311a.07.07 0 0 1 .042-.128l.524-.004.166-.498a.07.07 0 0 1 .135 0ZM11.008 2.078l.166.498.525.004a.07.07 0 0 1 .041.128l-.422.311.159.5a.07.07 0 0 1-.109.08l-.427-.306-.427.305a.07.07 0 0 1-.108-.079l.158-.5-.422-.311a.07.07 0 0 1 .042-.128l.524-.004.166-.498a.07.07 0 0 1 .134 0ZM11.008 6.23l.166.497.525.004a.07.07 0 0 1 .041.128l-.422.312.159.5a.07.07 0 0 1-.109.078l-.427-.305-.427.305a.07.07 0 0 1-.108-.078l.158-.5-.422-.312a.07.07 0 0 1 .042-.128l.524-.004.166-.497a.07.07 0 0 1 .134 0ZM11.008 10.834l.166.498.525.004a.07.07 0 0 1 .041.127l-.422.312.159.5a.07.07 0 0 1-.109.079l-.427-.305-.427.305a.07.07 0 0 1-.108-.08l.158-.5-.422-.31a.07.07 0 0 1 .042-.128l.524-.005.166-.497a.07.07 0 0 1 .134 0ZM11.008 15.064l.166.498.525.004a.07.07 0 0 1 .041.127l-.422.312.159.5a.07.07 0 0 1-.109.079l-.427-.305-.427.305a.07.07 0 0 1-.108-.079l.158-.5-.422-.312a.07.07 0 0 1 .042-.127l.524-.004.166-.498a.07.07 0 0 1 .134 0ZM11.008 18.913l.166.498.525.004a.07.07 0 0 1 .041.128l-.422.311.159.5a.07.07 0 0 1-.109.08l-.427-.306-.427.305a.07.07 0 0 1-.108-.079l.158-.5-.422-.311a.07.07 0 0 1 .042-.128l.524-.004.166-.498a.07.07 0 0 1 .134 0ZM13.029 4.045l.166.497.524.004a.07.07 0 0 1 .042.128l-.422.311.158.5a.07.07 0 0 1-.108.08l-.427-.306-.427.305a.07.07 0 0 1-.109-.078l.159-.5-.422-.312a.07.07 0 0 1 .041-.128l.524-.004.167-.497a.07.07 0 0 1 .134 0ZM13.029 8.648l.166.498.524.004a.07.07 0 0 1 .042.128l-.422.311.158.5a.07.07 0 0 1-.108.08l-.427-.306-.427.305a.07.07 0 0 1-.109-.079l.159-.5-.422-.311a.07.07 0 0 1 .041-.128l.524-.004.167-.498a.07.07 0 0 1 .134 0ZM13.029 13.023l.166.498.524.004a.07.07 0 0 1 .042.127l-.422.312.158.5a.07.07 0 0 1-.108.079l-.427-.305-.427.305a.07.07 0 0 1-.109-.079l.159-.5-.422-.312a.07.07 0 0 1 .041-.127l.524-.005.167-.497c.021-.064.112-.064.134 0ZM13.029 16.951l.166.498.524.004a.07.07 0 0 1 .042.128l-.422.311.158.5a.07.07 0 0 1-.108.08l-.427-.306-.427.305a.07.07 0 0 1-.109-.079l.159-.5-.422-.311a.07.07 0 0 1 .041-.128l.524-.004.167-.498a.07.07 0 0 1 .134 0ZM15.05 2.078l.165.498.525.004a.07.07 0 0 1 .041.128l-.422.311.159.5a.07.07 0 0 1-.109.08l-.427-.306-.426.305a.07.07 0 0 1-.11-.079l.16-.5-.423-.311a.07.07 0 0 1 .042-.128l.524-.004.166-.498a.07.07 0 0 1 .135 0ZM15.05 6.23l.165.498.525.004a.07.07 0 0 1 .041.127l-.422.312.159.5a.07.07 0 0 1-.109.079l-.427-.305-.426.305a.07.07 0 0 1-.11-.079l.16-.5-.423-.312a.07.07 0 0 1 .042-.127l.524-.004.166-.498a.07.07 0 0 1 .135 0ZM15.05 10.834l.165.498.525.004a.07.07 0 0 1 .041.127l-.422.312.159.5a.07.07 0 0 1-.109.079l-.427-.305-.426.305a.07.07 0 0 1-.11-.08l.16-.5-.423-.31a.07.07 0 0 1 .042-.128l.524-.005.166-.497a.07.07 0 0 1 .135 0ZM15.05 15.064l.165.498.525.004a.07.07 0 0 1 .041.127l-.422.312.159.5a.07.07 0 0 1-.109.079l-.427-.305-.426.305a.07.07 0 0 1-.11-.079l.16-.5-.423-.312a.07.07 0 0 1 .042-.127l.524-.004.166-.498a.07.07 0 0 1 .135 0ZM15.05 18.913l.165.498.525.004a.07.07 0 0 1 .041.128l-.422.311.159.5a.07.07 0 0 1-.109.08l-.427-.306-.426.305a.07.07 0 0 1-.11-.079l.16-.5-.423-.311a.07.07 0 0 1 .042-.128l.524-.004.166-.498a.07.07 0 0 1 .135 0ZM17.07 4.045l.166.497.524.004a.07.07 0 0 1 .042.128l-.422.311.158.5a.07.07 0 0 1-.108.08l-.427-.306-.427.305a.07.07 0 0 1-.108-.078l.158-.5-.422-.312a.07.07 0 0 1 .041-.128l.525-.004.166-.497c.021-.065.113-.065.134 0ZM17.07 8.648l.166.498.524.004a.07.07 0 0 1 .042.128l-.422.311.158.5a.07.07 0 0 1-.108.08l-.427-.306-.427.305a.07.07 0 0 1-.108-.079l.158-.5-.422-.311a.07.07 0 0 1 .041-.128l.525-.004.166-.498c.021-.064.113-.064.134 0ZM17.07 13.023l.166.498.524.004a.07.07 0 0 1 .042.127l-.422.312.158.5a.07.07 0 0 1-.108.079l-.427-.305-.427.305a.07.07 0 0 1-.108-.079l.158-.5-.422-.312a.07.07 0 0 1 .041-.127l.525-.005.166-.497c.021-.064.113-.064.134 0ZM17.07 16.951l.166.498.524.004a.07.07 0 0 1 .042.128l-.422.311.158.5a.07.07 0 0 1-.108.08l-.427-.306-.427.305a.07.07 0 0 1-.108-.079l.158-.5-.422-.311a.07.07 0 0 1 .041-.128l.525-.004.166-.498a.07.07 0 0 1 .134 0ZM19.09 2.078l.166.498.525.004a.07.07 0 0 1 .041.128l-.422.311.159.5a.07.07 0 0 1-.109.08l-.427-.306-.427.305a.07.07 0 0 1-.108-.079l.158-.5-.422-.311a.07.07 0 0 1 .041-.128l.525-.004.166-.498c.022-.064.113-.064.134 0ZM19.09 6.23l.166.498.525.004a.07.07 0 0 1 .041.127l-.422.312.159.5a.07.07 0 0 1-.109.079l-.427-.305-.427.305a.07.07 0 0 1-.108-.079l.158-.5-.422-.312a.07.07 0 0 1 .041-.127l.525-.004.166-.498c.022-.065.113-.065.134 0ZM19.09 10.834l.166.498.525.004a.07.07 0 0 1 .041.127l-.422.312.159.5a.07.07 0 0 1-.109.079l-.427-.305-.427.305a.07.07 0 0 1-.108-.08l.158-.5-.422-.31a.07.07 0 0 1 .041-.128l.525-.005.166-.497a.07.07 0 0 1 .134 0ZM19.09 15.064l.166.498.525.004a.07.07 0 0 1 .041.127l-.422.312.159.5a.07.07 0 0 1-.109.079l-.427-.305-.427.305a.07.07 0 0 1-.108-.079l.158-.5-.422-.312a.07.07 0 0 1 .041-.127l.525-.004.166-.498a.07.07 0 0 1 .134 0ZM19.09 18.913l.166.498.525.004a.07.07 0 0 1 .041.128l-.422.311.159.5a.07.07 0 0 1-.109.08l-.427-.306-.427.305a.07.07 0 0 1-.108-.079l.158-.5-.422-.311a.07.07 0 0 1 .041-.128l.525-.004.166-.498c.022-.064.113-.064.134 0Z" />
    </g>
    <defs>
        <clipPath id="a">
            <path fill="#fff" d="M0 .155h40v40H0z" />
        </clipPath>
    </defs>
</svg>