<svg xmlns="http://www.w3.org/2000/svg" fill="none" viewBox="0 0 40 41">
    <g clip-path="url(#a)">
        <path fill="#FF4B55"
            d="M31.674.16H8.328A8.75 8.75 0 0 0 .001 8.9v4.587h40V8.9A8.75 8.75 0 0 0 31.674.16Z" />
        <path fill="#464655"
            d="M.001 31.4a8.75 8.75 0 0 0 8.75 8.75h22.5a8.75 8.75 0 0 0 8.75-8.75v-4.587h-40V31.4Z" />
        <path fill="#F5F5F5" d="M40.001 13.487h-40v13.327h40V13.487Z" />
        <path fill="#F0C727"
            d="M22.953 18.324a.672.672 0 0 0-.884-.637l-.817.272-.199-1.198a1.471 1.471 0 0 0-1.456-1.234h-.765l-.8.984h1.06l-.297 1.463-.862-.287a.672.672 0 0 0-.884.637v4.973l1.19-1.19-.561 1.682h-.63v.984h5.905v-.984h-.63l-.56-1.682 1.19 1.19v-4.973ZM19.51 23.79h-.793l.545-1.457.248.316v1.14Zm.984 0v-1.14l.248-.317.545 1.457h-.793Zm-.492-1.784s-1.522-1.03-1.46-2.952c0 0 .937-.154 1.46-.984.523.83 1.46.984 1.46.984.062 1.922-1.46 2.952-1.46 2.952Z" />
    </g>
    <defs>
        <clipPath id="a">
            <path fill="#fff" d="M.001.155h40v40h-40z" />
        </clipPath>
    </defs>
</svg>