<svg xmlns="http://www.w3.org/2000/svg" fill="none" viewBox="0 0 40 41">
    <g clip-path="url(#a)">
        <path fill="#F5F5F5"
            d="M31.25.155H8.75A8.75 8.75 0 0 0 0 8.905v11.25h40V8.905a8.75 8.75 0 0 0-8.75-8.75Z" />
        <path fill="#FF4B55"
            d="M0 31.405a8.75 8.75 0 0 0 8.75 8.75h22.5a8.75 8.75 0 0 0 8.75-8.75v-11.25H0v11.25ZM13.793 11.19a8.966 8.966 0 0 0-8.965 8.965h17.93a8.966 8.966 0 0 0-8.965-8.965Z" />
        <path fill="#F5F5F5"
            d="M13.793 29.12a8.966 8.966 0 0 0 8.966-8.965H4.828a8.966 8.966 0 0 0 8.965 8.966Z" />
    </g>
    <defs>
        <clipPath id="a">
            <path fill="#fff" d="M0 .155h40v40H0z" />
        </clipPath>
    </defs>
</svg>